HIERARCHY
ROOT hip
{
	OFFSET 0.00 0.00 0.00
	CHANNELS 6 Xposition Yposition Zposition Xrotation Yrotation Zrotation
	JOINT abdomen
	{
		OFFSET 0.0000 3.3100 -0.0000
		CHANNELS 3 Xrotation Yrotation Zrotation
		JOINT chest
		{
			OFFSET 0.0000 8.0660 -0.6050
			CHANNELS 3 Xrotation Yrotation Zrotation
			JOINT neck
			{
				OFFSET 0.0000 9.8861 -0.3705
				CHANNELS 3 Xrotation Yrotation Zrotation
				JOINT head
				{
					OFFSET 0.0000 2.9776 -0.0000
					CHANNELS 3 Xrotation Yrotation Zrotation
					End Site
					{
						OFFSET 0.0000 3.1102 -0.0000
					}
				}
			}
			JOINT lCollar
			{
				OFFSET 2.8220 6.5116 -0.8157
				CHANNELS 3 Xrotation Yrotation Zrotation
				JOINT lShldr
				{
					OFFSET 3.1102 0.0000 0.0000
					CHANNELS 3 Xrotation Yrotation Zrotation
					JOINT lForeArm
					{
						OFFSET 10.9354 0.0000 0.0000
						CHANNELS 3 Xrotation Yrotation Zrotation
						JOINT lHand
						{
							OFFSET 9.5165 0.0000 0.0000
							CHANNELS 3 Xrotation Yrotation Zrotation
							End Site
							{
								OFFSET 3.9370 0.0000 0.0000
							}
						}
					}
				}
			}
			JOINT rCollar
			{
				OFFSET -2.8346 6.5116 -0.8157
				CHANNELS 3 Xrotation Yrotation Zrotation
				JOINT rShldr
				{
					OFFSET -3.1267 0.0000 0.0000
					CHANNELS 3 Xrotation Yrotation Zrotation
					JOINT rForeArm
					{
						OFFSET -10.9354 0.0000 0.0000
						CHANNELS 3 Xrotation Yrotation Zrotation
						JOINT rHand
						{
							OFFSET -9.5236 0.0000 0.0000
							CHANNELS 3 Xrotation Yrotation Zrotation
							End Site
							{
								OFFSET -3.9370 0.0000 0.0000
							}
						}
					}
				}
			}
		}
	}
	JOINT rThigh
	{
		OFFSET -5.0711 -1.6176 1.3236
		CHANNELS 3 Xrotation Yrotation Zrotation
		JOINT rShin
		{
			OFFSET 1.9148 -19.3276 -0.0307
			CHANNELS 3 Xrotation Yrotation Zrotation
			JOINT rFoot
			{
				OFFSET 0.0000 -18.4446 -1.1366
				CHANNELS 3 Xrotation Yrotation Zrotation
				End Site
				{
					OFFSET 0.0000 -2.3873 4.4077
				}
			}
		}
	}
	JOINT lThigh
	{
		OFFSET 4.9907 -1.6141 1.3290
		CHANNELS 3 Xrotation Yrotation Zrotation
		JOINT lShin
		{
			OFFSET -1.7940 -19.3328 -0.0349
			CHANNELS 3 Xrotation Yrotation Zrotation
			JOINT lFoot
			{
				OFFSET 0.0543 -18.4448 -1.1373
				CHANNELS 3 Xrotation Yrotation Zrotation
				End Site
				{
					OFFSET 0.0000 -2.3866 4.4077
				}
			}
		}
	}
}
MOTION
Frames: 15
Frame Time: 0.041667
0.0000 0.0000 0.0000 1.0000 0.0000 0.0000 0.0000 0.0000 0.0000 0.0000 0.0000 0.0000 0.0000 0.0000 0.0000 1.0000 0.0000 0.0000 0.0000 0.0000 0.0000 0.0000 0.0000 0.0000 0.0000 0.0000 0.0000 0.0000 0.0000 0.0000 0.0000 0.0000 0.0000 0.0000 0.0000 0.0000 0.0000 0.0000 0.0000 0.0000 0.0000 0.0000 0.0000 0.0000 0.0000 0.0000 0.0000 0.0000 0.0000 0.0000 0.0000 0.0000 0.0000 0.0000 0.0000 0.0000 0.0000 0.0000 0.0000 0.0000 
0.0000 0.0000 5.4911 0.0000 0.0000 0.0000 7.5591 0.0000 0.0000 -2.4403 0.0000 0.0000 0.2714 12.5996 -1.4210 0.0000 0.0000 0.0000 -2.5663 -8.1445 -17.7922 2.9559 -36.1192 -30.7273 0.0000 -61.5005 0.0000 -24.4689 -2.1690 -39.7663 -2.5663 8.1445 17.7922 2.9559 36.1192 30.7273 0.0000 61.5005 0.0000 -24.4689 2.1690 39.7663 1.3081 -0.2693 -5.6968 -2.0772 -0.8646 3.6223 -3.1845 -0.8220 6.9835 1.2709 0.2778 5.7048 -2.0688 0.8588 -3.6286 -3.1845 0.8212 -6.9836 
0.0000 0.0000 5.4911 0.0000 0.0000 0.0000 7.5566 0.0000 0.0000 -2.4356 0.0000 0.0000 0.2715 12.5996 -1.4210 0.0000 0.0000 0.0000 -2.5663 -8.1445 -17.7922 2.9559 -36.1192 -30.7273 0.0000 -61.5005 0.0000 -24.4689 -2.1690 -39.7663 -2.5663 8.1445 17.7922 2.9559 36.1192 30.7273 0.0000 61.5005 0.0000 -24.4689 2.1690 39.7663 1.3081 -0.2693 -5.6968 -2.0772 -0.8646 3.6223 -3.1845 -0.8220 6.9835 1.2709 0.2778 5.7048 -2.0688 0.8588 -3.6286 -3.1845 0.8212 -6.9836 
0.0000 0.0000 5.4911 0.0000 0.0000 0.0000 7.5523 0.0000 0.0000 -2.4278 0.0000 0.0000 0.2715 12.5996 -1.4210 0.0000 0.0000 0.0000 -2.5663 -8.1445 -17.7922 2.9559 -36.1192 -30.7273 0.0000 -61.5005 0.0000 -24.4689 -2.1690 -39.7663 -2.5663 8.1445 17.7922 2.9559 36.1192 30.7273 0.0000 61.5005 0.0000 -24.4689 2.1690 39.7663 1.3081 -0.2693 -5.6968 -2.0772 -0.8646 3.6223 -3.1845 -0.8220 6.9835 1.2709 0.2778 5.7048 -2.0688 0.8588 -3.6286 -3.1845 0.8212 -6.9836 
0.0000 0.0000 5.4911 0.0000 0.0000 0.0000 7.5462 0.0000 0.0000 -2.4168 0.0000 0.0000 0.2715 12.5996 -1.4210 0.0000 0.0000 0.0000 -2.5663 -8.1445 -17.7922 2.9559 -36.1192 -30.7273 0.0000 -61.5005 0.0000 -24.4689 -2.1690 -39.7663 -2.5663 8.1445 17.7922 2.9559 36.1192 30.7273 0.0000 61.5005 0.0000 -24.4689 2.1690 39.7663 1.3081 -0.2693 -5.6968 -2.0772 -0.8646 3.6223 -3.1845 -0.8220 6.9835 1.2709 0.2778 5.7048 -2.0688 0.8588 -3.6286 -3.1845 0.8212 -6.9836 
0.0000 0.0000 5.4911 0.0000 0.0000 0.0000 7.5384 0.0000 0.0000 -2.4027 0.0000 0.0000 0.2715 12.5996 -1.4210 0.0000 0.0000 0.0000 -2.5663 -8.1445 -17.7922 2.9559 -36.1192 -30.7273 0.0000 -61.5005 0.0000 -24.4689 -2.1690 -39.7663 -2.5663 8.1445 17.7922 2.9559 36.1192 30.7273 0.0000 61.5005 0.0000 -24.4689 2.1690 39.7663 1.3081 -0.2693 -5.6968 -2.0772 -0.8646 3.6223 -3.1845 -0.8220 6.9835 1.2709 0.2778 5.7048 -2.0688 0.8588 -3.6286 -3.1845 0.8212 -6.9836 
0.0000 0.0000 5.4911 0.0000 0.0000 0.0000 7.5289 0.0000 0.0000 -2.3854 0.0000 0.0000 0.2714 12.5996 -1.4210 0.0000 0.0000 0.0000 -2.5663 -8.1445 -17.7922 2.9559 -36.1192 -30.7273 0.0000 -61.5005 0.0000 -24.4689 -2.1690 -39.7663 -2.5663 8.1445 17.7922 2.9559 36.1192 30.7273 0.0000 61.5005 0.0000 -24.4689 2.1690 39.7663 1.3081 -0.2693 -5.6968 -2.0772 -0.8646 3.6223 -3.1845 -0.8220 6.9835 1.2709 0.2778 5.7048 -2.0688 0.8588 -3.6286 -3.1845 0.8212 -6.9836 
0.0000 0.0000 5.4911 0.0000 0.0000 0.0000 7.5176 0.0000 0.0000 -2.3649 0.0000 0.0000 0.2715 12.5996 -1.4210 0.0000 0.0000 0.0000 -2.5663 -8.1445 -17.7922 2.9559 -36.1192 -30.7273 0.0000 -61.5005 0.0000 -24.4689 -2.1690 -39.7663 -2.5663 8.1445 17.7922 2.9559 36.1192 30.7273 0.0000 61.5005 0.0000 -24.4689 2.1690 39.7663 1.3081 -0.2693 -5.6968 -2.0772 -0.8646 3.6223 -3.1845 -0.8220 6.9835 1.2709 0.2778 5.7048 -2.0688 0.8588 -3.6286 -3.1845 0.8212 -6.9836 
0.0000 0.0000 5.4911 0.0000 0.0000 0.0000 7.5046 0.0000 0.0000 -2.3412 0.0000 0.0000 0.2715 12.5996 -1.4210 0.0000 0.0000 0.0000 -2.5663 -8.1445 -17.7922 2.9559 -36.1192 -30.7273 0.0000 -61.5005 0.0000 -24.4689 -2.1690 -39.7663 -2.5663 8.1445 17.7922 2.9559 36.1192 30.7273 0.0000 61.5005 0.0000 -24.4689 2.1690 39.7663 1.3081 -0.2693 -5.6968 -2.0772 -0.8646 3.6223 -3.1845 -0.8220 6.9835 1.2709 0.2778 5.7048 -2.0688 0.8588 -3.6286 -3.1845 0.8212 -6.9836 
0.0000 0.0000 5.4911 0.0000 0.0000 0.0000 7.4899 0.0000 0.0000 -2.3144 0.0000 0.0000 0.2715 12.5996 -1.4210 0.0000 0.0000 0.0000 -2.5663 -8.1445 -17.7922 2.9559 -36.1192 -30.7273 0.0000 -61.5005 0.0000 -24.4689 -2.1690 -39.7663 -2.5663 8.1445 17.7922 2.9559 36.1192 30.7273 0.0000 61.5005 0.0000 -24.4689 2.1690 39.7663 1.3081 -0.2693 -5.6968 -2.0772 -0.8646 3.6223 -3.1845 -0.8220 6.9835 1.2709 0.2778 5.7048 -2.0688 0.8588 -3.6286 -3.1845 0.8212 -6.9836 
0.0000 0.0000 5.4911 0.0000 0.0000 0.0000 7.4734 0.0000 0.0000 -2.2845 0.0000 0.0000 0.2715 12.5996 -1.4210 0.0000 0.0000 0.0000 -2.5663 -8.1445 -17.7922 2.9559 -36.1192 -30.7273 0.0000 -61.5005 0.0000 -24.4689 -2.1690 -39.7663 -2.5663 8.1445 17.7922 2.9559 36.1192 30.7273 0.0000 61.5005 0.0000 -24.4689 2.1690 39.7663 1.3081 -0.2693 -5.6968 -2.0772 -0.8646 3.6223 -3.1845 -0.8220 6.9835 1.2709 0.2778 5.7048 -2.0688 0.8588 -3.6286 -3.1845 0.8212 -6.9836 
0.0000 0.0000 5.4911 0.0000 0.0000 0.0000 7.4552 0.0000 0.0000 -2.2515 0.0000 0.0000 0.2715 12.5996 -1.4210 0.0000 0.0000 0.0000 -2.5663 -8.1445 -17.7922 2.9558 -36.1192 -30.7273 0.0000 -61.5005 0.0000 -24.4689 -2.1690 -39.7663 -2.5663 8.1445 17.7922 2.9559 36.1192 30.7273 0.0000 61.5005 0.0000 -24.4689 2.1690 39.7663 1.3081 -0.2693 -5.6968 -2.0772 -0.8646 3.6223 -3.1845 -0.8220 6.9835 1.2709 0.2778 5.7048 -2.0688 0.8588 -3.6286 -3.1845 0.8212 -6.9836 
0.0000 0.0000 5.4911 0.0000 0.0000 0.0000 7.4354 0.0000 0.0000 -2.2154 0.0000 0.0000 0.2715 12.5996 -1.4210 0.0000 0.0000 0.0000 -2.5663 -8.1445 -17.7922 2.9559 -36.1192 -30.7273 0.0000 -61.5005 0.0000 -24.4689 -2.1690 -39.7663 -2.5663 8.1445 17.7922 2.9559 36.1192 30.7273 0.0000 61.5005 0.0000 -24.4689 2.1690 39.7663 1.3081 -0.2693 -5.6968 -2.0772 -0.8646 3.6223 -3.1845 -0.8220 6.9835 1.2709 0.2778 5.7048 -2.0688 0.8588 -3.6286 -3.1845 0.8212 -6.9836 
0.0000 0.0000 5.4911 0.0000 0.0000 0.0000 7.4139 0.0000 0.0000 -2.1763 0.0000 0.0000 0.2714 12.5996 -1.4210 0.0000 0.0000 0.0000 -2.5663 -8.1445 -17.7922 2.9559 -36.1192 -30.7273 0.0000 -61.5005 0.0000 -24.4689 -2.1690 -39.7663 -2.5663 8.1445 17.7922 2.9559 36.1192 30.7273 0.0000 61.5005 0.0000 -24.4689 2.1690 39.7663 1.3081 -0.2693 -5.6968 -2.0772 -0.8646 3.6223 -3.1845 -0.8220 6.9835 1.2709 0.2778 5.7048 -2.0688 0.8588 -3.6286 -3.1845 0.8212 -6.9836 
0.0000 0.0000 5.4911 0.0000 0.0000 0.0000 7.3908 0.0000 0.0000 -2.1344 0.0000 0.0000 0.2715 12.5996 -1.4210 0.0000 0.0000 0.0000 -2.5663 -8.1445 -17.7922 2.9559 -36.1192 -30.7273 0.0000 -61.5005 0.0000 -24.4689 -2.1690 -39.7663 -2.5663 8.1445 17.7922 2.9559 36.1192 30.7273 0.0000 61.5005 0.0000 -24.4689 2.1690 39.7663 1.3081 -0.2693 -5.6968 -2.0772 -0.8646 3.6223 -3.1845 -0.8220 6.9835 1.2709 0.2778 5.7048 -2.0688 0.8588 -3.6286 -3.1845 0.8212 -6.9836 
